<svg width="44" height="43" viewBox="0 0 44 43" fill="none" xmlns="http://www.w3.org/2000/svg">
<path d="M43.728 39.9092L29.7207 25.9504C31.8943 23.15 33.0702 19.7262 33.0702 16.1249C33.0702 11.8142 31.3819 7.77222 28.3291 4.7246C25.2763 1.67699 21.2095 0 16.8892 0C12.5689 0 8.50212 1.68237 5.44932 4.7246C2.39113 7.76684 0.708313 11.8142 0.708313 16.1249C0.708313 20.4303 2.39652 24.483 5.44932 27.5253C8.50212 30.5729 12.5635 32.2499 16.8892 32.2499C20.503 32.2499 23.9333 31.0781 26.7434 28.9174L40.7507 42.8708C40.7918 42.9118 40.8405 42.9443 40.8942 42.9664C40.9479 42.9886 41.0054 43 41.0635 43C41.1216 43 41.1792 42.9886 41.2328 42.9664C41.2865 42.9443 41.3353 42.9118 41.3764 42.8708L43.728 40.5327C43.7691 40.4918 43.8017 40.4432 43.8239 40.3897C43.8462 40.3362 43.8576 40.2789 43.8576 40.2209C43.8576 40.163 43.8462 40.1057 43.8239 40.0522C43.8017 39.9987 43.7691 39.9501 43.728 39.9092ZM25.4328 24.6389C23.1459 26.9125 20.1146 28.1649 16.8892 28.1649C13.6638 28.1649 10.6326 26.9125 8.34571 24.6389C6.0642 22.3599 4.80748 19.3392 4.80748 16.1249C4.80748 12.9107 6.0642 9.88458 8.34571 7.61097C10.6326 5.33735 13.6638 4.08498 16.8892 4.08498C20.1146 4.08498 23.1513 5.33198 25.4328 7.61097C27.7143 9.88996 28.971 12.9107 28.971 16.1249C28.971 19.3392 27.7143 22.3653 25.4328 24.6389Z" fill="black"/>
</svg>
